{
    "asset" : {
        "generator" : "Khronos glTF Blender I/O v3.3.32",
        "version" : "2.0"
    },
    "extensionsUsed" : [
        "KHR_materials_transmission",
        "KHR_materials_emissive_strength",
        "KHR_materials_specular",
        "KHR_materials_ior"
    ],
    "scene" : 0,
    "scenes" : [
        {
            "name" : "Scene",
            "nodes" : [
                0
            ]
        }
    ],
    "nodes" : [
        {
            "mesh" : 0,
            "name" : "hibiscus4"
        }
    ],
    "materials" : [
        {
            "doubleSided" : true,
            "emissiveFactor" : [
                1,
                1,
                1
            ],
            "emissiveTexture" : {
                "index" : 0
            },
            "extensions" : {
                "KHR_materials_transmission" : {
                    "transmissionFactor" : 1
                },
                "KHR_materials_emissive_strength" : {
                    "emissiveStrength" : 8
                },
                "KHR_materials_specular" : {
                    "specularColorFactor" : [
                        1,
                        1,
                        1
                    ]
                },
                "KHR_materials_ior" : {
                    "ior" : 1.4500000476837158
                }
            },
            "name" : "hibiscus-beads",
            "normalTexture" : {
                "index" : 1
            },
            "pbrMetallicRoughness" : {
                "baseColorTexture" : {
                    "index" : 2
                },
                "metallicFactor" : 0,
                "roughnessFactor" : 0.103232741355896
            }
        }
    ],
    "meshes" : [
        {
            "name" : "Blooming_Hibiscus_Flower_Orange_max_convert.008",
            "primitives" : [
                {
                    "attributes" : {
                        "POSITION" : 0,
                        "NORMAL" : 1,
                        "TEXCOORD_0" : 2
                    },
                    "indices" : 3,
                    "material" : 0
                }
            ]
        }
    ],
    "textures" : [
        {
            "sampler" : 0,
            "source" : 0
        },
        {
            "sampler" : 0,
            "source" : 1
        },
        {
            "sampler" : 0,
            "source" : 2
        }
    ],
    "images" : [
        {
            "bufferView" : 4,
            "mimeType" : "image/jpeg",
            "name" : "hibisucus-glow"
        },
        {
            "bufferView" : 5,
            "mimeType" : "image/jpeg",
            "name" : "Flower_normal.png"
        },
        {
            "bufferView" : 6,
            "mimeType" : "image/jpeg",
            "name" : "Flower_diffuse_v3"
        }
    ],
    "accessors" : [
        {
            "bufferView" : 0,
            "componentType" : 5126,
            "count" : 22591,
            "max" : [
                0.11903101205825806,
                0.09660915285348892,
                0.11285590380430222
            ],
            "min" : [
                -0.10415826737880707,
                -0.09666036814451218,
                -0.11312976479530334
            ],
            "type" : "VEC3"
        },
        {
            "bufferView" : 1,
            "componentType" : 5126,
            "count" : 22591,
            "type" : "VEC3"
        },
        {
            "bufferView" : 2,
            "componentType" : 5126,
            "count" : 22591,
            "type" : "VEC2"
        },
        {
            "bufferView" : 3,
            "componentType" : 5123,
            "count" : 98721,
            "type" : "SCALAR"
        }
    ],
    "bufferViews" : [
        {
            "buffer" : 0,
            "byteLength" : 271092,
            "byteOffset" : 0,
            "target" : 34962
        },
        {
            "buffer" : 0,
            "byteLength" : 271092,
            "byteOffset" : 271092,
            "target" : 34962
        },
        {
            "buffer" : 0,
            "byteLength" : 180728,
            "byteOffset" : 542184,
            "target" : 34962
        },
        {
            "buffer" : 0,
            "byteLength" : 197442,
            "byteOffset" : 722912,
            "target" : 34963
        },
        {
            "buffer" : 0,
            "byteLength" : 5891,
            "byteOffset" : 920356
        },
        {
            "buffer" : 0,
            "byteLength" : 61243,
            "byteOffset" : 926248
        },
        {
            "buffer" : 0,
            "byteLength" : 45718,
            "byteOffset" : 987492
        }
    ],
    "samplers" : [
        {
            "magFilter" : 9729,
            "minFilter" : 9987
        }
    ],
    "buffers" : [
        {
            "byteLength" : 1033212,
            "uri" : "data:application/octet-stream;base64,"
        }
    ]
}
