{
    "asset" : {
        "generator" : "Khronos glTF Blender I/O v3.3.32",
        "version" : "2.0"
    },
    "extensionsUsed" : [
        "KHR_materials_transmission",
        "KHR_materials_specular",
        "KHR_materials_ior"
    ],
    "scene" : 0,
    "scenes" : [
        {
            "name" : "Scene",
            "nodes" : [
                0
            ]
        }
    ],
    "nodes" : [
        {
            "mesh" : 0,
            "name" : "siam3"
        }
    ],
    "materials" : [
        {
            "doubleSided" : true,
            "emissiveFactor" : [
                1,
                1,
                1
            ],
            "emissiveTexture" : {
                "index" : 0
            },
            "extensions" : {
                "KHR_materials_transmission" : {
                    "transmissionFactor" : 1
                },
                "KHR_materials_specular" : {
                    "specularColorFactor" : [
                        1,
                        1,
                        1
                    ]
                },
                "KHR_materials_ior" : {
                    "ior" : 1.4500000476837158
                }
            },
            "name" : "siam",
            "pbrMetallicRoughness" : {
                "baseColorTexture" : {
                    "index" : 1
                },
                "metallicFactor" : 0,
                "roughnessFactor" : 0.103232741355896
            }
        }
    ],
    "meshes" : [
        {
            "name" : "Blooming_Nymphaea_Siam_Purple_obj_base.009",
            "primitives" : [
                {
                    "attributes" : {
                        "POSITION" : 0,
                        "NORMAL" : 1,
                        "TEXCOORD_0" : 2,
                        "COLOR_0" : 3,
                        "COLOR_1" : 4
                    },
                    "indices" : 5,
                    "material" : 0
                }
            ]
        }
    ],
    "textures" : [
        {
            "sampler" : 0,
            "source" : 0
        },
        {
            "sampler" : 0,
            "source" : 1
        }
    ],
    "images" : [
        {
            "bufferView" : 6,
            "mimeType" : "image/jpeg",
            "name" : "siam-bake-glow"
        },
        {
            "bufferView" : 7,
            "mimeType" : "image/jpeg",
            "name" : "siam-bake-low"
        }
    ],
    "accessors" : [
        {
            "bufferView" : 0,
            "componentType" : 5126,
            "count" : 22887,
            "max" : [
                0.09694010764360428,
                0.04095645621418953,
                0.0946158692240715
            ],
            "min" : [
                -0.10050155222415924,
                -0.036498162895441055,
                -0.09860881417989731
            ],
            "type" : "VEC3"
        },
        {
            "bufferView" : 1,
            "componentType" : 5126,
            "count" : 22887,
            "type" : "VEC3"
        },
        {
            "bufferView" : 2,
            "componentType" : 5126,
            "count" : 22887,
            "type" : "VEC2"
        },
        {
            "bufferView" : 3,
            "componentType" : 5123,
            "count" : 22887,
            "normalized" : true,
            "type" : "VEC4"
        },
        {
            "bufferView" : 4,
            "componentType" : 5126,
            "count" : 22887,
            "normalized" : false,
            "type" : "VEC4"
        },
        {
            "bufferView" : 5,
            "componentType" : 5123,
            "count" : 77898,
            "type" : "SCALAR"
        }
    ],
    "bufferViews" : [
        {
            "buffer" : 0,
            "byteLength" : 274644,
            "byteOffset" : 0,
            "target" : 34962
        },
        {
            "buffer" : 0,
            "byteLength" : 274644,
            "byteOffset" : 274644,
            "target" : 34962
        },
        {
            "buffer" : 0,
            "byteLength" : 183096,
            "byteOffset" : 549288,
            "target" : 34962
        },
        {
            "buffer" : 0,
            "byteLength" : 183096,
            "byteOffset" : 732384,
            "target" : 34962
        },
        {
            "buffer" : 0,
            "byteLength" : 366192,
            "byteOffset" : 915480,
            "target" : 34962
        },
        {
            "buffer" : 0,
            "byteLength" : 155796,
            "byteOffset" : 1281672,
            "target" : 34963
        },
        {
            "buffer" : 0,
            "byteLength" : 12982,
            "byteOffset" : 1437468
        },
        {
            "buffer" : 0,
            "byteLength" : 12925,
            "byteOffset" : 1450452
        }
    ],
    "samplers" : [
        {
            "magFilter" : 9729,
            "minFilter" : 9987
        }
    ],
    "buffers" : [
        {
            "byteLength" : 1463380,
            "uri" : "data:application/octet-stream;base64,"
        }
    ]
}
